<?xml version="1.0" standalone="no"?><!DOCTYPE svg PUBLIC "-//W3C//DTD SVG 1.1//EN" "http://www.w3.org/Graphics/SVG/1.1/DTD/svg11.dtd"><svg t="1496883090811" class="icon" style="" viewBox="0 0 1024 1024" version="1.1" xmlns="http://www.w3.org/2000/svg" p-id="1261" xmlns:xlink="http://www.w3.org/1999/xlink" width="32" height="32"><defs><style type="text/css"></style></defs><path d="M74.452689 75.724659c-39.358403 0-71.354118 31.995715-71.354118 71.307046l0 712.134133c0 39.311331 31.995715 71.303976 71.354118 71.303976l878.265848 0c39.311331 0 71.259974-31.992645 71.259974-71.303976L1023.978511 147.031705c0-39.311331-31.948643-71.307046-71.259974-71.307046L74.452689 75.724659zM74.495668 147.122779l878.098026 0 0 436.921048L780.89417 422.245813c-8.717546-8.200776-22.271236-8.016581-30.80868 0.304945L563.140751 604.261287 301.530474 338.38894c-4.231371-4.290723-10.026354-6.786567-16.083304-6.739495-6.006807 0.077771-11.758812 2.480494-15.95846 6.861268 0 0-192.390775 202.189955-194.123232 203.983811-0.352017-0.274246-0.533143-0.51677-0.86981-0.638543C74.495668 538.706245 74.495668 147.122779 74.495668 147.122779zM74.495668 627.585505 286.011013 405.314189l303.071573 308.028469c4.181229 4.199649 9.842159 6.570649 15.775288 6.617721 5.872754 0.047072 11.637038-2.28095 15.821337-6.421246l9.493212-9.369392c8.764618-8.658194 8.854669-22.728654 0.227174-31.524994l-26.546609-27.004027 162.221662-157.673066 186.518021 175.7467 0 195.35734L74.495668 859.071693 74.495668 627.585505z" p-id="1262"></path><path d="M547.441187 415.142022c57.279564 0 103.741759-46.462195 103.741759-103.757109 0-57.291844-46.462195-103.741759-103.741759-103.741759-57.264215 0-103.726409 46.449915-103.726409 103.741759C443.714777 368.679827 490.176972 415.142022 547.441187 415.142022z" p-id="1263"></path></svg>