<?xml version="1.0" standalone="no"?><!DOCTYPE svg PUBLIC "-//W3C//DTD SVG 1.1//EN" "http://www.w3.org/Graphics/SVG/1.1/DTD/svg11.dtd"><svg t="1496883403053" class="icon" style="" viewBox="0 0 1024 1024" version="1.1" xmlns="http://www.w3.org/2000/svg" p-id="1931" xmlns:xlink="http://www.w3.org/1999/xlink" width="32" height="32"><defs><style type="text/css"></style></defs><path d="M780.8 390.336c0 17.664-12.608 32-28.224 32H611.264c-15.552 0-28.224-14.336-28.224-32 0-17.6 12.672-32 28.224-32h141.312c15.616 0.064 28.224 14.4 28.224 32zM780.8 277.312c0 17.664-12.608 32-28.224 32H611.264c-15.552 0-28.224-14.336-28.224-32s12.672-32 28.224-32h141.312c15.616 0 28.224 14.336 28.224 32zM794.624 651.776c0 17.664-12.672 32-28.288 32H257.6c-15.616 0-28.224-14.336-28.224-32 0-17.6 12.672-32 28.224-32h508.736c15.616 0 28.288 14.336 28.288 32zM794.624 793.088c0 17.728-12.672 32-28.288 32H257.6c-15.616 0-28.224-14.272-28.224-32 0-17.6 12.672-32 28.224-32h508.736c15.616 0 28.288 14.336 28.288 32z" fill="#040000" p-id="1932"></path><path d="M857.024 1024H166.912a144.832 144.832 0 0 1-144.64-144.704V144.64A144.832 144.832 0 0 1 166.912 0h690.112a144.896 144.896 0 0 1 144.704 144.64v734.656A144.896 144.896 0 0 1 857.024 1024zM166.912 64c-44.48 0-80.64 36.16-80.64 80.64v734.656c0 44.48 36.16 80.704 80.64 80.704h690.112c44.48 0 80.704-36.16 80.704-80.704V144.64c0-44.48-36.16-80.64-80.704-80.64H166.912z" fill="#040000" p-id="1933"></path><path d="M355.328 472.64c-76.544 0-138.752-62.272-138.752-138.752s62.272-138.752 138.752-138.752 138.752 62.272 138.752 138.752-62.208 138.752-138.752 138.752z m0-213.568a74.816 74.816 0 1 0 0.064 149.568 74.816 74.816 0 0 0-0.064-149.568z" fill="#040000" p-id="1934"></path></svg>