<?xml version="1.0" standalone="no"?><!DOCTYPE svg PUBLIC "-//W3C//DTD SVG 1.1//EN" "http://www.w3.org/Graphics/SVG/1.1/DTD/svg11.dtd"><svg t="1499328983331" class="icon" style="" viewBox="0 0 1024 1024" version="1.1" xmlns="http://www.w3.org/2000/svg" p-id="1571" xmlns:xlink="http://www.w3.org/1999/xlink" width="32" height="32"><defs><style type="text/css"></style></defs><path d="M1023.978754 509.440106C1021.41886 225.291898 791.028421-2.538647 509.440107 0.021247S-2.538646 232.97158 0.021248 514.559894s232.950333 511.978753 514.538647 509.418859c284.148208-2.559894 511.978753-232.950333 509.418859-514.538647z" fill="#D6D6D6" p-id="1572"></path><path d="M445.442763 504.320319L327.68765 384.005312l-51.197875 51.197875c-12.799469 15.359363-40.9583 2.559894-38.398407-15.359363v-161.273307c0-12.799469 10.239575-23.039044 23.039044-23.039044h161.273307c20.47915 0 30.718725 25.598938 15.359363 38.398407l-51.197876 51.197875 117.755114 117.755113c5.119788 5.119788 5.119788 12.799469 0 15.359363l-40.958301 40.9583c-5.119788 10.239575-12.799469 10.239575-17.919256 5.119788z m319.986721 281.588314h-161.273308c-20.47915 0-30.718725-25.598938-15.359362-38.398407l51.197875-51.197875-117.755113-117.755113c-5.119788-5.119788-5.119788-12.799469 0-15.359363l40.9583-40.9583c5.119788-5.119788 12.799469-5.119788 15.359363 0l117.755113 117.755113 51.197875-51.197875c12.799469-15.359363 40.9583-2.559894 38.398407 15.359363v161.273307c2.559894 10.239575-10.239575 23.039044-20.47915 20.47915z" fill="#FFFFFF" p-id="1573"></path></svg>